# Blender v2.93.4 OBJ File: ''
# www.blender.org
mtllib cube.mtl
o Cube
v 1.000000 1.000000 -1.000000
v 1.000000 -1.000000 -1.000000
v 1.000000 1.000000 1.000000
v 1.000000 -1.000000 1.000000
v -1.000000 1.000000 -1.000000
v -1.000000 -1.000000 -1.000000
v -1.000000 1.000000 1.000000
v -1.000000 -1.000000 1.000000
vt 0.888909 0.982855
vt 0.569784 0.619181
vt 0.888909 0.619181
vt 0.068153 0.695289
vt 0.387278 0.331615
vt 0.387278 0.695289
vt 0.293596 0.688493
vt 0.612722 0.324819
vt 0.612722 0.688493
vt 0.370363 0.984214
vt 0.051238 0.620540
vt 0.370364 0.620540
vt 0.330028 0.976060
vt 0.649154 0.612385
vt 0.649154 0.976060
vt 0.561977 0.683057
vt 0.881102 0.319383
vt 0.881102 0.683057
vt 0.569784 0.982855
vt 0.068153 0.331615
vt 0.293596 0.324819
vt 0.051238 0.984214
vt 0.330028 0.612385
vt 0.561977 0.319383
vn 0.0000 1.0000 0.0000
vn 0.0000 0.0000 1.0000
vn -1.0000 0.0000 0.0000
vn 0.0000 -1.0000 0.0000
vn 1.0000 0.0000 0.0000
vn 0.0000 0.0000 -1.0000
usemtl Material
s off
f 5/1/1 3/2/1 1/3/1
f 3/4/2 8/5/2 4/6/2
f 7/7/3 6/8/3 8/9/3
f 2/10/4 8/11/4 6/12/4
f 1/13/5 4/14/5 2/15/5
f 5/16/6 2/17/6 6/18/6
f 5/1/1 7/19/1 3/2/1
f 3/4/2 7/20/2 8/5/2
f 7/7/3 5/21/3 6/8/3
f 2/10/4 4/22/4 8/11/4
f 1/13/5 3/23/5 4/14/5
f 5/16/6 1/24/6 2/17/6
