# Blender v2.93.4 OBJ File: ''
# www.blender.org
o Glass
v 0.000001 0.000002 0.000003
v 1.000000 0.000000 0.000000
v 0.100000 0.158963 -0.000000
v 0.100000 1.112739 -0.000000
v 1.000000 1.589626 -0.000000
v 1.000000 2.861327 -0.000000
v 0.800000 2.861327 -0.000000
v 0.800000 1.748589 -0.000000
v 0.000000 1.430664 -0.000000
v 0.000000 -0.000000 0.000000
v 0.000000 0.000000 0.000000
v 0.500000 -0.000000 -0.866025
v 0.050000 0.158963 -0.086603
v 0.050000 1.112739 -0.086603
v 0.500000 1.589626 -0.866026
v 0.500000 2.861327 -0.866026
v 0.400000 2.861327 -0.692821
v 0.400000 1.748589 -0.692820
v 0.000000 1.430664 -0.000000
v 0.000000 -0.000000 0.000000
v 0.000000 0.000000 0.000000
v -0.500000 -0.000000 -0.866025
v -0.050000 0.158963 -0.086603
v -0.050000 1.112739 -0.086603
v -0.500000 1.589626 -0.866026
v -0.500000 2.861327 -0.866026
v -0.400000 2.861327 -0.692821
v -0.400000 1.748589 -0.692820
v 0.000000 1.430664 -0.000000
v 0.000000 -0.000000 0.000000
v 0.000000 0.000000 0.000000
v -1.000000 0.000000 0.000000
v -0.100000 0.158963 -0.000000
v -0.100000 1.112739 -0.000000
v -1.000000 1.589626 -0.000000
v -1.000000 2.861327 -0.000000
v -0.800000 2.861327 -0.000000
v -0.800000 1.748589 -0.000000
v 0.000000 1.430664 -0.000000
v 0.000000 -0.000000 0.000000
v 0.000000 0.000000 0.000000
v -0.500000 0.000000 0.866025
v -0.050000 0.158963 0.086603
v -0.050000 1.112739 0.086602
v -0.500000 1.589627 0.866025
v -0.500000 2.861327 0.866025
v -0.400000 2.861327 0.692820
v -0.400000 1.748589 0.692820
v 0.000000 1.430664 -0.000000
v 0.000000 -0.000000 0.000000
v 0.000000 0.000000 0.000000
v 0.500000 0.000000 0.866025
v 0.050000 0.158963 0.086603
v 0.050000 1.112739 0.086602
v 0.500000 1.589627 0.866025
v 0.500000 2.861327 0.866025
v 0.400000 2.861327 0.692820
v 0.400000 1.748589 0.692820
v 0.000000 1.430664 -0.000000
v 0.000000 -0.000000 0.000000
vt 0.000000 0.000000
vt 0.166667 0.000000
vt 0.166667 0.000000
vt 0.333333 0.000000
vt 0.333333 0.000000
vt 0.500000 0.000000
vt 0.500000 0.000000
vt 0.666667 0.000000
vt 0.666667 0.000000
vt 0.833333 0.000000
vt 0.833333 0.000000
vt 1.000000 0.000000
vt 1.000000 0.000000
vt 0.000000 0.100000
vt 0.000000 0.000000
vt 0.166667 0.100000
vt 0.500000 0.100000
vt 0.666667 0.100000
vt 1.000000 0.100000
vt 0.000000 0.700000
vt 0.166667 0.700000
vt 0.333333 0.100000
vt 0.333333 0.700000
vt 0.500000 0.700000
vt 0.666667 0.700000
vt 0.833333 0.100000
vt 0.833333 0.700000
vt 0.166667 1.000000
vt 0.333333 1.000000
vt 0.500000 1.000000
vt 0.666667 1.000000
vt 0.833333 1.000000
vt 1.000000 0.700000
vt 0.000000 1.800000
vt 0.000000 1.000000
vt 0.166667 1.800000
vt 0.333333 1.800000
vt 0.500000 1.800000
vt 0.666667 1.800000
vt 0.833333 1.800000
vt 1.000000 1.000000
vt 0.166667 1.800000
vt 0.333333 1.800000
vt 0.666667 1.800000
vt 1.000000 1.800000
vt 1.000000 1.800000
vt 0.000000 1.100000
vt 0.000000 1.800000
vt 0.166667 1.100000
vt 0.333333 1.100000
vt 0.500000 1.800000
vt 0.500000 1.100000
vt 0.666667 1.100000
vt 0.833333 1.800000
vt 0.833333 1.100000
vt 0.166667 0.900000
vt 0.333333 0.900000
vt 0.500000 0.900000
vt 0.666667 0.900000
vt 0.833333 0.900000
vt 1.000000 0.900000
vt 1.000000 1.100000
vt 0.000000 0.900000
vt 0.166667 -0.000000
vt 0.333333 -0.000000
vt 0.500000 -0.000000
vt 0.666667 -0.000000
vt 0.833333 -0.000000
vt 1.000000 -0.000000
vt 0.000000 -0.000000
vn 0.0000 0.3162 0.9487
vn -0.4988 0.0683 0.8640
vn 0.4988 0.0683 0.8640
vn 0.9977 0.0683 0.0000
vn 0.4988 0.0683 -0.8640
vn -0.4988 0.0683 -0.8640
vn -0.9977 0.0683 0.0000
vn -0.6442 -0.7648 0.0000
vn -0.3221 -0.7648 0.5579
vn 0.6442 -0.7648 0.0000
vn 0.3221 -0.7648 -0.5579
vn -0.7962 0.6050 0.0000
vn -0.3981 0.6050 0.6895
vn 0.3221 -0.7648 0.5579
vn 0.3981 0.6050 0.6895
vn 0.7962 0.6050 0.0000
vn 0.3981 0.6050 -0.6895
vn -0.3221 -0.7648 -0.5579
vn -0.3981 0.6050 -0.6895
vn -0.4455 0.4540 0.7716
vn 0.4455 0.4540 0.7716
vn 0.8910 0.4540 0.0000
vn 0.4455 0.4540 -0.7716
vn -0.4455 0.4540 -0.7716
vn -0.7924 -0.6100 0.0000
vn -0.8910 0.4540 0.0000
vn -0.3962 -0.6100 0.6862
vn 0.3962 -0.6100 0.6862
vn 0.7924 -0.6100 0.0000
vn 0.3962 -0.6100 -0.6862
vn -0.3962 -0.6100 -0.6862
vn 0.2723 -0.8386 -0.4717
vn -0.2723 -0.8386 -0.4717
vn -0.2723 -0.8386 0.4717
vn 0.5447 -0.8386 0.0000
vn 0.8711 -0.4911 0.0000
vn 0.4355 -0.4911 -0.7544
vn -0.4355 -0.4911 -0.7544
vn -0.5447 -0.8386 0.0000
vn -0.8711 -0.4911 0.0000
vn -0.4355 -0.4911 0.7544
vn 0.2723 -0.8386 0.4717
vn 0.4355 -0.4911 0.7544
vn 0.0567 -0.1427 0.9881
vn 0.0000 -0.1477 0.9890
vn -0.0567 -0.1427 0.9881
vn -0.0533 -0.1340 0.9895
vn 0.0000 -0.1303 0.9915
vn 0.0533 -0.1340 0.9895
vn 0.0000 0.0000 1.0000
s 1
f 1/1/1 12/2/2 11/3/1
f 11/3/1 22/4/3 21/5/1
f 21/5/1 32/6/4 31/7/1
f 31/7/1 42/8/5 41/9/1
f 41/9/1 52/10/6 51/11/1
f 51/11/1 2/12/7 1/13/1
f 3/14/8 12/2/2 2/15/7
f 13/16/9 22/4/3 12/2/2
f 22/4/3 33/17/10 32/6/4
f 32/6/4 43/18/11 42/8/5
f 43/18/11 52/10/6 42/8/5
f 52/10/6 3/19/8 2/12/7
f 4/20/12 13/16/9 3/14/8
f 14/21/13 23/22/14 13/16/9
f 24/23/15 33/17/10 23/22/14
f 34/24/16 43/18/11 33/17/10
f 44/25/17 53/26/18 43/18/11
f 54/27/19 3/19/8 53/26/18
f 4/20/12 15/28/20 14/21/13
f 15/28/20 24/23/15 14/21/13
f 25/29/21 34/24/16 24/23/15
f 35/30/22 44/25/17 34/24/16
f 45/31/23 54/27/19 44/25/17
f 55/32/24 4/33/12 54/27/19
f 6/34/25 15/28/20 5/35/26
f 16/36/27 25/29/21 15/28/20
f 26/37/28 35/30/22 25/29/21
f 36/38/29 45/31/23 35/30/22
f 46/39/30 55/32/24 45/31/23
f 56/40/31 5/41/26 55/32/24
f 6/34/25 17/42/32 16/36/27
f 17/42/32 26/37/28 16/36/27
f 27/43/33 36/38/29 26/37/28
f 36/38/29 47/44/34 46/39/30
f 47/44/34 56/40/31 46/39/30
f 56/40/31 7/45/35 6/46/25
f 8/47/36 17/42/32 7/48/35
f 18/49/37 27/43/33 17/42/32
f 28/50/38 37/51/39 27/43/33
f 38/52/40 47/44/34 37/51/39
f 48/53/41 57/54/42 47/44/34
f 58/55/43 7/45/35 57/54/42
f 8/47/36 19/56/44 18/49/37
f 18/49/37 29/57/45 28/50/38
f 28/50/38 39/58/46 38/52/40
f 38/52/40 49/59/47 48/53/41
f 48/53/41 59/60/48 58/55/43
f 58/55/43 9/61/49 8/62/36
f 9/63/49 20/64/50 19/56/44
f 19/56/44 30/65/50 29/57/45
f 29/57/45 40/66/50 39/58/46
f 39/58/46 50/67/50 49/59/47
f 49/59/47 60/68/50 59/60/48
f 59/60/48 10/69/50 9/61/49
f 1/1/1 2/15/7 12/2/2
f 11/3/1 12/2/2 22/4/3
f 21/5/1 22/4/3 32/6/4
f 31/7/1 32/6/4 42/8/5
f 41/9/1 42/8/5 52/10/6
f 51/11/1 52/10/6 2/12/7
f 3/14/8 13/16/9 12/2/2
f 13/16/9 23/22/14 22/4/3
f 22/4/3 23/22/14 33/17/10
f 32/6/4 33/17/10 43/18/11
f 43/18/11 53/26/18 52/10/6
f 52/10/6 53/26/18 3/19/8
f 4/20/12 14/21/13 13/16/9
f 14/21/13 24/23/15 23/22/14
f 24/23/15 34/24/16 33/17/10
f 34/24/16 44/25/17 43/18/11
f 44/25/17 54/27/19 53/26/18
f 54/27/19 4/33/12 3/19/8
f 4/20/12 5/35/26 15/28/20
f 15/28/20 25/29/21 24/23/15
f 25/29/21 35/30/22 34/24/16
f 35/30/22 45/31/23 44/25/17
f 45/31/23 55/32/24 54/27/19
f 55/32/24 5/41/26 4/33/12
f 6/34/25 16/36/27 15/28/20
f 16/36/27 26/37/28 25/29/21
f 26/37/28 36/38/29 35/30/22
f 36/38/29 46/39/30 45/31/23
f 46/39/30 56/40/31 55/32/24
f 56/40/31 6/46/25 5/41/26
f 6/34/25 7/48/35 17/42/32
f 17/42/32 27/43/33 26/37/28
f 27/43/33 37/51/39 36/38/29
f 36/38/29 37/51/39 47/44/34
f 47/44/34 57/54/42 56/40/31
f 56/40/31 57/54/42 7/45/35
f 8/47/36 18/49/37 17/42/32
f 18/49/37 28/50/38 27/43/33
f 28/50/38 38/52/40 37/51/39
f 38/52/40 48/53/41 47/44/34
f 48/53/41 58/55/43 57/54/42
f 58/55/43 8/62/36 7/45/35
f 8/47/36 9/63/49 19/56/44
f 18/49/37 19/56/44 29/57/45
f 28/50/38 29/57/45 39/58/46
f 38/52/40 39/58/46 49/59/47
f 48/53/41 49/59/47 59/60/48
f 58/55/43 59/60/48 9/61/49
f 9/63/49 10/70/50 20/64/50
f 19/56/44 20/64/50 30/65/50
f 29/57/45 30/65/50 40/66/50
f 39/58/46 40/66/50 50/67/50
f 49/59/47 50/67/50 60/68/50
f 59/60/48 60/68/50 10/69/50
