# Blender v2.93.4 OBJ File: ''
# www.blender.org
mtllib grass.mtl
o Cube
v 1.000000 1.000000 -1.000000
v 1.000000 -1.000000 -1.000000
v 1.000000 1.000000 1.000000
v 1.000000 -1.000000 1.000000
v -1.000000 1.000000 -1.000000
v -1.000000 -1.000000 -1.000000
v -1.000000 1.000000 1.000000
v -1.000000 -1.000000 1.000000
vt 0.500000 0.500000
vt 1.000000 0.500000
vt 0.500000 1.000000
vt 1.000000 1.000000
vt 0.000000 0.500000
vt 0.499999 0.500000
vt 0.000000 1.000000
vt 0.499999 1.000000
vt 0.000000 0.000000
vt 0.499999 0.000000
vt 0.000000 0.499999
vt 0.499999 0.499999
vn 0.0000 1.0000 0.0000
vn 0.0000 0.0000 1.0000
vn -1.0000 0.0000 0.0000
vn 0.0000 -1.0000 0.0000
vn 1.0000 0.0000 0.0000
vn 0.0000 0.0000 -1.0000
usemtl Material
s off
f 3/4/2 8/1/2 4/2/2
f 3/4/2 7/3/2 8/1/2
f 2/6/4 4/8/4 8/7/4
f 2/6/4 8/7/4 6/5/4
f 1/6/5 3/8/5 4/7/5
f 1/6/5 4/7/5 2/5/5
f 5/6/1 7/8/1 3/7/1
f 5/6/1 3/7/1 1/5/1
f 7/7/3 5/5/3 6/6/3
f 7/7/3 6/6/3 8/8/3
f 5/9/6 2/12/6 6/11/6
f 5/9/6 1/10/6 2/12/6
