# Blender v3.0.0 OBJ File: ''
# www.blender.org
mtllib lowpolytree.mtl
o Cylinder
v 0.019167 -0.022686 5.097189
v 0.199847 0.186951 4.336523
v 0.015674 0.253985 4.336522
v 0.033842 -0.034999 5.097189
v 0.292234 0.023412 4.273196
v 0.263809 -0.175799 4.336522
v 0.032072 -0.045037 5.097189
v 0.113670 -0.301781 4.336522
v 0.014070 -0.051589 5.097189
v -0.087932 -0.295585 4.273196
v -0.232462 -0.175799 4.336522
v 0.004492 -0.034999 5.097189
v -0.266496 0.017216 4.336522
v 0.024263 -0.051589 5.097189
v 0.009589 -0.026172 5.097189
v -0.174109 0.193147 4.273196
v -0.353069 -0.994068 0.997386
v -0.005440 0.939428 1.060713
v 0.979368 0.113076 0.866635
v -1.162461 0.150182 0.815302
v -0.569643 0.618026 1.353442
v -0.766733 0.851516 0.751976
v -0.006855 1.119851 0.815303
v -1.023078 -0.640299 0.815302
v -0.862932 0.094124 1.416768
v -0.306797 -0.872648 1.353442
v -0.413802 -1.150053 0.751976
v 0.394483 -1.156250 0.815302
v 1.009368 -0.640300 0.815302
v 0.296607 -0.878845 1.416768
v 0.858351 0.094124 1.416768
v 1.143143 0.156378 0.751976
v 0.747414 0.845319 0.815302
v -0.002290 0.816288 1.416768
v -0.470645 0.047717 3.563017
v -0.106769 0.103203 4.323286
v -0.309076 0.343474 3.499690
v 0.010725 0.451634 3.563017
v -0.412585 -0.281559 3.563017
v -0.162981 -0.010069 4.386613
v -0.052405 -0.205110 4.323286
v -0.162062 -0.490283 3.499691
v 0.177903 -0.496479 3.563017
v 0.434034 -0.281559 3.563017
v 0.076845 -0.211306 4.386613
v 0.193029 -0.010069 4.386613
v 0.486486 0.053914 3.499690
v 0.324917 0.337278 3.563017
v 0.015024 0.139295 4.386613
v 0.010529 0.315060 3.615564
v 0.463775 0.504165 2.712854
v 0.005286 0.671042 2.712854
v 0.365764 0.016982 3.615564
v 0.702124 0.087815 2.649527
v 0.623007 -0.398883 2.712854
v 0.133901 -0.384617 3.615564
v 0.249243 -0.712509 2.712854
v -0.118452 -0.378421 3.552238
v -0.244281 -0.706312 2.649528
v -0.612436 -0.398883 2.712854
v -0.344706 0.016982 3.615564
v -0.697161 0.081619 2.712854
v -0.226943 0.236865 3.552238
v -0.458813 0.510362 2.649529
v -0.864248 0.105654 1.948999
v -0.359524 0.384325 2.701589
v -0.569569 0.631965 1.885673
v 0.000399 0.831178 1.949000
v -0.759959 -0.485799 1.949000
v -0.545192 0.046827 2.764916
v -0.191317 -0.569622 2.701589
v -0.305499 -0.865646 1.885673
v 0.300687 -0.871843 1.949000
v 0.760756 -0.485799 1.948999
v 0.196847 -0.575818 2.764916
v 0.556331 0.046827 2.764916
v 0.859436 0.111850 1.885673
v 0.564756 0.625769 1.949000
v 0.005569 0.508970 2.764916
v 0.001149 0.681816 2.006673
v 0.669916 0.752068 1.357215
v -0.003388 0.997131 1.357214
v 0.726197 0.073428 2.006673
v 1.022565 0.137744 1.293888
v 0.903752 -0.574081 1.357215
v 0.252955 -0.746250 2.006674
v 0.354870 -1.034648 1.357215
v -0.256267 -0.740054 1.943347
v -0.367254 -1.028452 1.293888
v -0.910528 -0.574081 1.357215
v -0.723899 0.073428 2.006673
v -1.034949 0.131548 1.357214
v -0.477702 0.515766 1.943347
v -0.682301 0.758265 1.293888
v -0.141511 -0.131831 4.386613
v 0.171559 -0.131831 4.386613
v 0.131209 0.097007 4.386613
v 0.242392 0.230668 3.615564
v 0.322917 -0.226013 3.615564
v -0.301860 -0.226013 3.615564
v -0.478762 -0.329916 2.764916
v 0.489901 -0.329917 2.764916
v 0.365054 0.378129 2.764916
v 0.474390 0.509570 2.006675
v 0.638746 -0.422534 2.006674
v -0.636448 -0.422534 2.006674
v -0.759126 -0.494589 1.416768
v 0.754545 -0.494589 1.416768
v 0.559453 0.611830 1.416768
v 0.637348 0.705472 1.060712
v 0.860586 -0.560572 0.866635
v 0.336580 -1.000265 1.060712
v -0.871465 -0.560572 0.866635
v -0.990247 0.113076 0.866635
v -0.653837 0.711668 0.803308
v 0.028745 -0.026172 5.097189
v 0.006262 -0.045037 5.097189
v -0.018886 0.373037 1.149994
v 0.161257 0.198870 0.555765
v -0.018886 0.264436 0.555765
v 0.231064 0.282063 1.149994
v 0.257109 0.032850 0.555765
v 0.364060 0.051708 1.149994
v 0.223820 -0.155942 0.555765
v 0.114110 -0.381218 1.149994
v 0.076966 -0.279167 0.555765
v -0.151881 -0.381218 1.149994
v -0.114738 -0.279166 0.555765
v -0.355642 -0.210242 1.149994
v -0.261591 -0.155942 0.555765
v -0.294880 0.032850 0.555765
v 0.317871 -0.210242 1.149994
v -0.199028 0.198870 0.555765
v -0.268836 0.282063 1.149994
v 0.231064 0.282063 -0.025452
v 0.317871 -0.210242 -0.025452
v -0.151881 -0.381218 -0.025452
v -0.268836 0.282063 -0.025452
v -0.401831 0.051708 -0.025452
v -0.018886 0.373037 -0.025452
v -0.355642 -0.210242 -0.025452
v 0.114110 -0.381218 -0.025452
v 0.364060 0.051708 -0.025452
v -0.401831 0.051708 1.149994
vn 0.3238 0.8896 0.3221
vn 0.8751 0.3786 0.3014
vn 0.8292 0.4613 0.3156
vn 0.8754 0.3779 0.3013
vn 0.9389 -0.1474 0.3111
vn 0.9541 -0.0429 0.2964
vn 0.9542 -0.0420 0.2962
vn 0.6108 -0.7280 0.3113
vn 0.6109 -0.7280 0.3112
vn -0.1211 -0.9475 0.2958
vn -0.0176 -0.9505 0.3103
vn -0.1220 -0.9475 0.2957
vn -0.5989 -0.7365 0.3144
vn -0.5277 -0.7944 0.3007
vn -0.5271 -0.7949 0.3006
vn -0.9327 -0.1645 0.3210
vn 0.0000 0.0000 1.0000
vn -0.3321 0.8860 0.3237
vn -0.3833 0.8677 0.3165
vn -0.3837 0.8675 0.3165
vn -0.7885 0.5274 0.3163
vn -0.8150 0.4809 0.3232
vn -0.7883 0.5278 0.3162
vn 0.0527 -0.0520 -0.9973
vn 0.0902 0.0271 -0.9956
vn -0.0956 0.0962 -0.9908
vn -0.7667 0.4761 0.4307
vn -0.7667 0.4758 0.4310
vn -0.7670 0.4720 0.4346
vn -0.3357 0.8379 0.4303
vn -0.3360 0.8380 0.4300
vn -0.3319 0.8376 0.4339
vn -0.8898 -0.1569 0.4285
vn -0.5510 -0.7195 0.4228
vn -0.5509 -0.7197 0.4225
vn -0.5534 -0.7146 0.4280
vn -0.0461 -0.9072 0.4181
vn -0.0456 -0.9070 0.4186
vn -0.0402 -0.9046 0.4244
vn 0.5844 -0.6965 0.4163
vn 0.9072 -0.1387 0.3971
vn 0.9071 -0.1388 0.3973
vn 0.9163 -0.1236 0.3810
vn 0.8015 0.4414 0.4035
vn 0.8014 0.4415 0.4036
vn 0.8138 0.4317 0.3891
vn 0.3093 0.8499 0.4266
vn -0.7892 0.5112 0.3404
vn -0.7683 0.5499 0.3276
vn -0.7919 0.5058 0.3421
vn -0.4089 0.8519 0.3272
vn -0.3669 0.8659 0.3401
vn -0.3611 0.8676 0.3418
vn -0.9279 -0.1636 0.3351
vn -0.4821 -0.8192 0.3107
vn -0.5433 -0.7699 0.3348
vn -0.5507 -0.7634 0.3376
vn -0.0910 -0.9388 0.3322
vn -0.1706 -0.9363 0.3071
vn -0.0796 -0.9386 0.3356
vn 0.6078 -0.7244 0.3254
vn 0.9350 -0.1478 0.3223
vn 0.9463 -0.0964 0.3087
vn 0.9474 -0.0902 0.3070
vn 0.8507 0.4216 0.3140
vn 0.8257 0.4602 0.3263
vn 0.8536 0.4169 0.3125
vn 0.3224 0.8857 0.3342
vn 0.3209 0.8817 0.3458
vn 0.8372 0.4381 0.3273
vn 0.8218 0.4593 0.3371
vn 0.8413 0.4322 0.3246
vn 0.9309 -0.1484 0.3337
vn 0.9390 -0.1194 0.3226
vn 0.9410 -0.1114 0.3195
vn 0.6047 -0.7207 0.3390
vn -0.0648 -0.9366 0.3444
vn -0.0921 -0.9384 0.3331
vn -0.0564 -0.9359 0.3478
vn -0.5407 -0.7707 0.3370
vn -0.5590 -0.7529 0.3474
vn -0.5641 -0.7477 0.3502
vn -0.9230 -0.1627 0.3487
vn -0.3680 0.8635 0.3448
vn -0.3532 0.8673 0.3509
vn -0.3488 0.8683 0.3527
vn -0.7926 0.4980 0.3519
vn -0.7864 0.5119 0.3458
vn -0.7944 0.4938 0.3537
vn -0.7962 0.4924 0.3517
vn -0.7946 0.4968 0.3489
vn -0.7974 0.4890 0.3537
vn -0.3516 0.8691 0.3479
vn -0.3470 0.8699 0.3506
vn -0.3434 0.8705 0.3526
vn -0.9228 -0.1627 0.3491
vn -0.5630 -0.7526 0.3416
vn -0.5681 -0.7466 0.3461
vn -0.5718 -0.7423 0.3493
vn -0.0523 -0.9381 0.3425
vn -0.0607 -0.9393 0.3376
vn -0.0458 -0.9370 0.3464
vn 0.6048 -0.7208 0.3385
vn 0.9323 -0.1478 0.3301
vn 0.9376 -0.1325 0.3214
vn 0.9411 -0.1220 0.3154
vn 0.8321 0.4483 0.3267
vn 0.8230 0.4592 0.3343
vn 0.8380 0.4409 0.3215
vn 0.3209 0.8816 0.3461
vn 0.3114 0.8557 0.4133
vn 0.8085 0.4405 0.3903
vn 0.8047 0.4440 0.3942
vn 0.8188 0.4309 0.3793
vn 0.9108 -0.1398 0.3884
vn 0.9133 -0.1349 0.3842
vn 0.9204 -0.1206 0.3718
vn 0.5881 -0.7009 0.4035
vn -0.0506 -0.9125 0.4058
vn -0.0523 -0.9131 0.4044
vn -0.0439 -0.9103 0.4117
vn -0.5506 -0.7281 0.4084
vn -0.5515 -0.7265 0.4099
vn -0.5547 -0.7211 0.4150
vn -0.8960 -0.1580 0.4150
vn -0.3414 0.8429 0.4160
vn -0.3402 0.8429 0.4169
vn -0.3358 0.8429 0.4205
vn -0.7709 0.4810 0.4176
vn -0.7707 0.4822 0.4166
vn -0.7716 0.4767 0.4211
vn 0.1976 -0.4971 -0.8449
vn 0.1723 -0.4545 -0.8739
vn 0.2362 -0.5608 -0.7935
vn 0.4213 -0.2660 -0.8671
vn 0.4542 -0.2951 -0.8406
vn 0.5115 -0.3464 -0.7864
vn 0.4511 0.0795 -0.8889
vn 0.0287 0.5523 -0.8331
vn 0.0410 0.6093 -0.7918
vn 0.0601 0.6935 -0.7179
vn 0.3501 0.4923 -0.7969
vn 0.3187 0.4320 -0.8437
vn 0.3855 0.5620 -0.7318
vn -0.3049 0.3633 -0.8804
vn -0.6514 -0.0494 -0.7571
vn -0.6106 -0.0215 -0.7916
vn -0.4465 0.0787 -0.8913
vn -0.6167 -0.1620 -0.7704
vn -0.6230 -0.1964 -0.7571
vn -0.6421 -0.3707 -0.6711
vn -0.1439 -0.3954 -0.9072
vn -0.1295 -0.3559 -0.9255
vn -0.5100 -0.1488 -0.8472
vn -0.5582 -0.2529 -0.7902
vn -0.5938 -0.3428 -0.7279
vn -0.6300 -0.0074 -0.7765
vn -0.5134 0.0335 -0.8575
vn -0.3976 0.0701 -0.9149
vn -0.2691 0.3207 -0.9081
vn 0.2105 0.4491 -0.8683
vn 0.1871 0.3873 -0.9027
vn 0.2240 0.4852 -0.8452
vn 0.1056 0.4211 -0.9009
vn 0.1263 0.4801 -0.8681
vn 0.1400 0.5188 -0.8433
vn 0.3987 0.0703 -0.9144
vn 0.2872 -0.2718 -0.9185
vn 0.3209 -0.3102 -0.8949
vn 0.3447 -0.3375 -0.8759
vn 0.2474 -0.3698 -0.8956
vn 0.2138 -0.3279 -0.9202
vn 0.2693 -0.3969 -0.8775
vn 0.2303 -0.2914 -0.9285
vn 0.1983 -0.2563 -0.9460
vn 0.2447 -0.3072 -0.9196
vn 0.2185 -0.2409 -0.9456
vn 0.2466 -0.2773 -0.9286
vn 0.2602 -0.2949 -0.9194
vn 0.3356 0.0592 -0.9401
vn 0.1106 0.3345 -0.9359
vn 0.1315 0.3846 -0.9137
vn 0.1411 0.4076 -0.9022
vn 0.1466 0.3799 -0.9133
vn 0.1297 0.3261 -0.9364
vn 0.1536 0.4026 -0.9024
vn -0.2263 0.2697 -0.9360
vn -0.5750 0.0096 -0.8181
vn -0.4250 0.0420 -0.9042
vn -0.3368 0.0594 -0.9397
vn -0.4193 -0.1298 -0.8985
vn -0.4988 -0.2492 -0.8301
vn -0.5353 -0.3090 -0.7861
vn -0.1107 -0.3041 -0.9462
vn -0.1302 -0.3577 -0.9247
vn -0.4441 -0.1619 -0.8812
vn -0.5499 -0.2946 -0.7816
vn -0.5790 -0.3343 -0.7437
vn -0.6439 0.0390 -0.7641
vn -0.4651 0.0623 -0.8830
vn -0.3965 0.0699 -0.9154
vn -0.2660 0.3170 -0.9104
vn 0.1127 0.4378 -0.8920
vn 0.1019 0.3914 -0.9146
vn 0.1156 0.4505 -0.8853
vn 0.1735 0.3640 -0.9151
vn 0.1944 0.4049 -0.8935
vn 0.2005 0.4169 -0.8866
vn 0.3927 0.0692 -0.9170
vn 0.2125 -0.3054 -0.9282
vn 0.2341 -0.3385 -0.9114
vn 0.2407 -0.3486 -0.9059
vn 0.2949 -0.2905 -0.9103
vn 0.2653 -0.2629 -0.9276
vn 0.3034 -0.2984 -0.9049
vn 0.2569 -0.2529 -0.9328
vn 0.2303 -0.2276 -0.9461
vn 0.2648 -0.2605 -0.9285
vn 0.1839 -0.2653 -0.9465
vn 0.2039 -0.2953 -0.9334
vn 0.2102 -0.3047 -0.9290
vn 0.3381 0.0596 -0.9392
vn 0.1482 0.3115 -0.9386
vn 0.1665 0.3483 -0.9225
vn 0.1720 0.3595 -0.9172
vn 0.0973 0.3760 -0.9215
vn 0.0873 0.3346 -0.9383
vn 0.1001 0.3877 -0.9163
vn -0.2282 0.2720 -0.9348
vn -0.5720 0.0342 -0.8196
vn -0.4037 0.0540 -0.9133
vn -0.3421 0.0603 -0.9377
vn -0.3866 -0.1414 -0.9113
vn -0.4898 -0.2630 -0.8312
vn -0.5192 -0.2998 -0.8003
vn -0.1133 -0.3114 -0.9435
vn -0.2817 -0.7738 -0.5673
vn -0.7595 -0.2817 -0.5864
vn -0.5850 -0.2396 -0.7748
vn -0.8004 -0.2903 -0.5244
vn -0.5494 0.0350 -0.8348
vn -0.3573 0.0493 -0.9327
vn -0.3002 0.0529 -0.9524
vn -0.2984 0.3112 -0.9023
vn -0.6065 0.5259 -0.5963
vn -0.6561 0.5572 -0.5090
vn 0.0542 0.8457 -0.5309
vn 0.0505 0.8397 -0.5406
vn 0.0559 0.8486 -0.5261
vn 0.5626 0.5558 -0.6120
vn 0.2562 0.3724 -0.8920
vn 0.6202 0.5835 -0.5243
vn 0.2956 0.0521 -0.9539
vn 0.2273 -0.3333 -0.9150
vn 0.4285 -0.6611 -0.6159
vn 0.4603 -0.7140 -0.5276
vn 0.2254 -0.2244 -0.9481
vn 0.1986 -0.2004 -0.9594
vn 0.2320 -0.2304 -0.9450
vn 0.8212 0.4742 0.3176
vn 0.9352 -0.1649 0.3133
vn 0.0000 -0.9499 0.3124
vn -0.6098 -0.7267 0.3163
vn -0.0001 0.0000 1.0000
vn 0.0001 0.0000 1.0000
vn -0.3234 0.8888 0.3248
vn -0.8192 0.4730 0.3243
vn 0.4476 -0.3391 -0.8275
vn 0.2554 -0.0540 -0.9653
vn 0.1381 0.3795 -0.9148
vn -0.0859 -0.0594 -0.9945
vn 0.0761 -0.4771 -0.8755
vn 0.2833 0.0500 -0.9577
vn -0.7663 0.4805 0.4264
vn -0.3405 0.8384 0.4257
vn -0.5481 -0.7255 0.4163
vn -0.0525 -0.9100 0.4112
vn 0.8949 -0.1578 0.4174
vn 0.7854 0.4534 0.4214
vn -0.7627 0.5597 0.3242
vn -0.4196 0.8480 0.3238
vn -0.4665 -0.8304 0.3045
vn -0.1918 -0.9345 0.3000
vn 0.9308 -0.1641 0.3265
vn 0.8175 0.4720 0.3300
vn 0.8138 0.4699 0.3419
vn 0.9264 -0.1634 0.3392
vn -0.1053 -0.9389 0.3276
vn -0.5323 -0.7786 0.3322
vn -0.3749 0.8617 0.3420
vn -0.7834 0.5183 0.3430
vn -0.7930 0.5012 0.3462
vn -0.3563 0.8683 0.3451
vn -0.5580 -0.7582 0.3372
vn -0.0692 -0.9406 0.3324
vn 0.9266 -0.1634 0.3388
vn 0.8139 0.4699 0.3418
vn 0.7905 0.4564 0.4084
vn 0.9006 -0.1588 0.4045
vn -0.0605 -0.9158 0.3971
vn -0.5465 -0.7346 0.4021
vn -0.3467 0.8428 0.4116
vn -0.7697 0.4874 0.4123
vn 0.1401 -0.3996 -0.9059
vn 0.3722 -0.2231 -0.9010
vn 0.0137 0.4802 -0.8771
vn 0.2883 0.3746 -0.8812
vn -0.7320 -0.1093 -0.6725
vn -0.5794 -0.0117 -0.8150
vn -0.4691 -0.0708 -0.8803
vn -0.6875 -0.0295 -0.7256
vn 0.1771 0.3610 -0.9156
vn 0.0957 0.3924 -0.9148
vn 0.2690 -0.2511 -0.9298
vn 0.1971 -0.3070 -0.9311
vn 0.1878 -0.2449 -0.9512
vn 0.2088 -0.2283 -0.9509
vn 0.1040 0.3186 -0.9422
vn 0.1248 0.3105 -0.9423
vn -0.6204 -0.0012 -0.7843
vn -0.3836 -0.0796 -0.9201
vn -0.4135 -0.1260 -0.9017
vn -0.6772 0.0339 -0.7350
vn 0.0999 0.3826 -0.9185
vn 0.1693 0.3557 -0.9191
vn 0.2077 -0.2982 -0.9316
vn 0.2592 -0.2571 -0.9310
vn 0.2248 -0.2223 -0.9487
vn 0.1796 -0.2588 -0.9491
vn 0.1444 0.3039 -0.9417
vn 0.0853 0.3267 -0.9413
vn -0.6039 0.0299 -0.7965
vn -0.3591 -0.1106 -0.9267
vn -0.5190 -0.2223 -0.8253
vn -0.5790 0.0325 -0.8147
vn -0.2001 0.2385 -0.9503
vn 0.0491 0.8374 -0.5444
vn 0.1576 0.3050 -0.9392
vn 0.1593 -0.2243 -0.9614
vn 0.1940 -0.1962 -0.9612
vn 0.3371 0.9261 -0.1693
vn 0.8535 0.4928 -0.1693
vn 0.9706 -0.1711 -0.1693
vn 0.6335 -0.7550 -0.1693
vn -0.0000 -0.9856 -0.1693
vn -0.6335 -0.7550 -0.1693
vn -0.9706 -0.1711 -0.1693
vn -0.3371 0.9261 -0.1693
vn -0.8535 0.4928 -0.1693
vn 0.0000 0.0000 -1.0000
vn -0.8530 0.4925 0.1729
vn -0.3369 0.9255 0.1729
vn -0.9700 -0.1710 0.1729
vn -0.6331 -0.7545 0.1729
vn -0.0000 -0.9849 0.1729
vn 0.6331 -0.7545 0.1729
vn 0.9700 -0.1710 0.1729
vn 0.8530 0.4925 0.1729
vn 0.3369 0.9255 0.1729
usemtl Leaves
s 1
f 1//1 2//1 3//1
f 2//2 4//3 5//4
f 4//5 6//6 5//7
f 7//8 8//9 6//9
f 8//10 9//11 10//12
f 9//13 11//14 10//15
f 11//16 12//16 13//16
f 14//17 7//17 1//17
f 15//18 3//19 16//20
f 13//21 15//22 16//23
f 17//24 18//25 19//26
f 20//27 21//28 22//29
f 21//30 23//31 22//32
f 24//33 25//33 20//33
f 26//34 24//35 27//36
f 28//37 26//38 27//39
f 29//40 30//40 28//40
f 31//41 29//42 32//43
f 33//44 31//45 32//46
f 34//47 33//47 23//47
f 35//48 36//49 37//50
f 36//51 38//52 37//53
f 39//54 40//54 35//54
f 41//55 39//56 42//57
f 43//58 41//59 42//60
f 44//61 45//61 43//61
f 46//62 44//63 47//64
f 48//65 46//66 47//67
f 49//68 48//68 38//68
f 50//69 51//69 52//69
f 51//70 53//71 54//72
f 53//73 55//74 54//75
f 55//76 56//76 57//76
f 57//77 58//78 59//79
f 58//80 60//81 59//82
f 60//83 61//83 62//83
f 63//84 52//85 64//86
f 62//87 63//88 64//89
f 65//90 66//91 67//92
f 66//93 68//94 67//95
f 69//96 70//96 65//96
f 71//97 69//98 72//99
f 73//100 71//101 72//102
f 74//103 75//103 73//103
f 76//104 74//105 77//106
f 78//107 76//108 77//109
f 79//110 78//110 68//110
f 80//111 81//111 82//111
f 81//112 83//113 84//114
f 83//115 85//116 84//117
f 85//118 86//118 87//118
f 87//119 88//120 89//121
f 88//122 90//123 89//124
f 90//125 91//125 92//125
f 93//126 82//127 94//128
f 92//129 93//130 94//131
f 13//132 36//133 40//134
f 36//135 3//136 49//137
f 11//138 40//138 95//138
f 41//139 11//140 95//141
f 8//142 41//143 45//144
f 96//145 8//145 45//145
f 46//146 6//147 96//148
f 97//149 5//150 46//151
f 49//152 2//152 97//152
f 50//153 48//153 98//153
f 98//154 47//155 53//156
f 53//157 44//158 99//159
f 99//160 43//160 56//160
f 43//161 58//162 56//163
f 58//164 39//165 100//166
f 39//167 61//167 100//167
f 63//168 38//169 50//170
f 35//171 63//172 61//173
f 62//174 66//175 70//176
f 66//177 52//178 79//179
f 60//180 70//180 101//180
f 71//181 60//182 101//183
f 57//184 71//185 75//186
f 102//187 57//187 75//187
f 76//188 55//189 102//190
f 103//191 54//192 76//193
f 79//194 51//194 103//194
f 80//195 78//195 104//195
f 104//196 77//197 83//198
f 83//199 74//200 105//201
f 105//202 73//202 86//202
f 73//203 88//204 86//205
f 88//206 69//207 106//208
f 69//209 91//209 106//209
f 93//210 68//211 80//212
f 65//213 93//214 91//215
f 92//216 21//217 25//218
f 21//219 82//220 34//221
f 90//222 25//222 107//222
f 26//223 90//224 107//225
f 87//226 26//227 30//228
f 108//229 87//229 30//229
f 31//230 85//231 108//232
f 109//233 84//234 31//235
f 34//236 81//236 109//236
f 18//237 33//237 110//237
f 33//238 19//239 110//240
f 19//241 29//242 111//243
f 111//244 28//245 112//246
f 28//247 17//248 112//249
f 27//250 113//251 17//252
f 24//253 114//253 113//253
f 115//254 23//255 18//256
f 20//257 115//258 114//259
f 1//1 116//1 2//1
f 2//2 116//260 4//3
f 4//5 7//261 6//6
f 7//8 14//8 8//9
f 8//10 14//262 9//11
f 9//13 117//263 11//14
f 11//16 117//16 12//16
f 4//17 116//17 7//17
f 116//17 1//17 7//17
f 1//17 15//264 9//17
f 15//264 12//17 9//17
f 12//17 117//265 9//17
f 9//17 14//17 1//17
f 15//18 1//266 3//19
f 13//21 12//267 15//22
f 115//268 18//25 114//269
f 18//25 110//270 19//26
f 114//269 18//25 17//24
f 19//26 111//271 17//24
f 111//271 112//272 17//24
f 17//24 113//273 114//269
f 20//27 25//274 21//28
f 21//30 34//275 23//31
f 24//33 107//33 25//33
f 26//34 107//276 24//35
f 28//37 30//277 26//38
f 29//40 108//40 30//40
f 31//41 108//278 29//42
f 33//44 109//279 31//45
f 34//47 109//47 33//47
f 35//48 40//280 36//49
f 36//51 49//281 38//52
f 39//54 95//54 40//54
f 41//55 95//282 39//56
f 43//58 45//283 41//59
f 44//61 96//61 45//61
f 46//62 96//284 44//63
f 48//65 97//285 46//66
f 49//68 97//68 48//68
f 50//69 98//69 51//69
f 51//70 98//286 53//71
f 53//73 99//287 55//74
f 55//76 99//76 56//76
f 57//77 56//288 58//78
f 58//80 100//289 60//81
f 60//83 100//83 61//83
f 63//84 50//290 52//85
f 62//87 61//291 63//88
f 65//90 70//292 66//91
f 66//93 79//293 68//94
f 69//96 101//96 70//96
f 71//97 101//294 69//98
f 73//100 75//295 71//101
f 74//103 102//103 75//103
f 76//104 102//296 74//105
f 78//107 103//297 76//108
f 79//110 103//110 78//110
f 80//111 104//111 81//111
f 81//112 104//298 83//113
f 83//115 105//299 85//116
f 85//118 105//118 86//118
f 87//119 86//300 88//120
f 88//122 106//301 90//123
f 90//125 106//125 91//125
f 93//126 80//302 82//127
f 92//129 91//303 93//130
f 13//132 16//304 36//133
f 36//135 16//305 3//136
f 11//138 13//138 40//138
f 41//139 10//306 11//140
f 8//142 10//307 41//143
f 96//145 6//145 8//145
f 46//146 5//308 6//147
f 97//149 2//309 5//150
f 49//152 3//152 2//152
f 50//153 38//153 48//153
f 98//154 48//310 47//155
f 53//157 47//311 44//158
f 99//160 44//160 43//160
f 43//161 42//312 58//162
f 58//164 42//313 39//165
f 39//167 35//167 61//167
f 63//168 37//314 38//169
f 35//171 37//315 63//172
f 62//174 64//316 66//175
f 66//177 64//317 52//178
f 60//180 62//180 70//180
f 71//181 59//318 60//182
f 57//184 59//319 71//185
f 102//187 55//187 57//187
f 76//188 54//320 55//189
f 103//191 51//321 54//192
f 79//194 52//194 51//194
f 80//195 68//195 78//195
f 104//196 78//322 77//197
f 83//199 77//323 74//200
f 105//202 74//202 73//202
f 73//203 72//324 88//204
f 88//206 72//325 69//207
f 69//209 65//209 91//209
f 93//210 67//326 68//211
f 65//213 67//327 93//214
f 92//216 94//328 21//217
f 21//219 94//329 82//220
f 90//222 92//222 25//222
f 26//223 89//330 90//224
f 87//226 89//331 26//227
f 108//229 85//229 87//229
f 31//230 84//332 85//231
f 109//233 81//333 84//234
f 34//236 82//236 81//236
f 18//237 23//237 33//237
f 33//238 32//334 19//239
f 19//241 32//335 29//242
f 111//244 29//336 28//245
f 28//247 27//337 17//248
f 27//250 24//338 113//251
f 24//253 20//253 114//253
f 115//254 22//339 23//255
f 20//257 22//340 115//258
usemtl Bark
f 118//341 119//341 120//341
f 121//342 122//342 119//342
f 123//343 124//343 122//343
f 124//344 125//344 126//344
f 126//345 127//345 128//345
f 128//346 129//346 130//346
f 129//347 131//347 130//347
f 118//17 127//17 132//17
f 133//348 118//348 120//348
f 131//349 134//349 133//349
f 135//350 136//350 137//350
f 131//351 138//351 139//351
f 133//352 140//352 138//352
f 130//353 139//353 141//353
f 128//354 141//354 137//354
f 126//355 137//355 142//355
f 124//356 142//356 136//356
f 122//357 136//357 143//357
f 135//358 122//358 143//358
f 120//359 135//359 140//359
f 118//341 121//341 119//341
f 121//342 123//342 122//342
f 123//343 132//343 124//343
f 124//344 132//344 125//344
f 126//345 125//345 127//345
f 128//346 127//346 129//346
f 129//347 144//347 131//347
f 123//17 121//17 132//17
f 121//17 118//17 132//17
f 118//17 134//17 144//17
f 144//17 129//17 118//17
f 129//17 127//17 118//17
f 127//17 125//17 132//17
f 133//348 134//348 118//348
f 131//349 144//349 134//349
f 138//350 140//350 139//350
f 140//350 135//350 139//350
f 135//350 143//350 136//350
f 136//350 142//350 137//350
f 137//350 141//350 135//350
f 141//350 139//350 135//350
f 131//351 133//351 138//351
f 133//352 120//352 140//352
f 130//353 131//353 139//353
f 128//354 130//354 141//354
f 126//355 128//355 137//355
f 124//356 126//356 142//356
f 122//357 124//357 136//357
f 135//358 119//358 122//358
f 120//359 119//359 135//359
