# Blender v3.2.2 OBJ File: ''
# www.blender.org
mtllib rock.mtl
o Cube.001
v -0.299720 -0.281385 -0.107518
v -0.255518 -0.548389 -0.027552
v -0.499796 -0.453443 -0.030688
v -0.549032 -0.218272 -0.103489
v -0.322048 -0.331673 0.631678
v -0.558865 -0.307064 0.608651
v -0.484446 -0.525389 0.558162
v -0.289917 -0.630812 0.545335
v 0.530124 -0.466010 0.507304
v 0.384059 -0.428534 0.639615
v 0.210925 -0.719143 0.490592
v 0.444801 -0.677659 0.321869
v -0.448691 -0.661435 0.353260
v -0.608821 -0.578650 0.419941
v -0.816823 0.332430 0.435388
v -0.644181 0.340540 0.591457
v -0.323920 0.703824 0.560779
v -0.462951 0.680009 0.439933
v -0.356787 0.533486 0.070811
v -0.152709 0.333508 -0.028648
v -0.328945 0.397065 -0.054298
v -0.505111 0.482466 0.035401
v -0.170870 0.283486 -0.104357
v -0.226232 0.017762 -0.130185
v -0.520007 0.056274 -0.120672
v -0.409668 0.255154 -0.104133
v 0.260356 0.312405 -0.134968
v 0.228226 0.052759 -0.148271
v -0.007501 0.028618 -0.148552
v 0.082086 0.252946 -0.089534
v 0.182160 -0.253283 -0.141636
v 0.115716 -0.565821 -0.067209
v -0.073425 -0.583832 -0.054394
v -0.050486 -0.283113 -0.130331
v 0.162839 -0.410299 0.651242
v -0.094065 -0.299671 0.646251
v -0.163821 -0.821840 0.547440
v -0.031011 -0.853214 0.523948
v 0.380784 0.340453 0.633393
v 0.029927 0.472351 0.606311
v 0.021903 0.120535 0.642063
v 0.290495 0.138135 0.642433
v -0.258513 0.422515 0.612840
v -0.559180 -0.004655 0.619108
v -0.286619 0.005357 0.638272
v 0.640212 -0.354779 0.090147
v 0.602110 -0.479021 0.299629
v 0.548812 -0.656324 0.227093
v 0.481981 -0.623718 0.087168
v 0.628870 0.406673 0.060512
v 0.601941 0.327656 0.285130
v 0.558272 -0.080299 0.328959
v 0.602793 0.030348 0.114531
v 0.676257 0.335878 0.426219
v 0.585242 0.282404 0.578074
v 0.463380 -0.022753 0.592180
v 0.499238 -0.093829 0.507594
v -0.335716 -0.639865 0.090562
v -0.495750 -0.612623 0.191412
v -0.782914 -0.405498 0.214728
v -0.746468 -0.366127 0.052388
v 0.234806 -0.664814 0.072890
v 0.316873 -0.688200 0.208990
v 0.123550 -0.648660 0.215027
v -0.064189 -0.714962 0.074430
v 0.249017 -0.670038 0.328455
v -0.031767 -0.761125 0.309762
v -0.639627 0.383882 -0.037385
v -0.836042 0.344229 0.151833
v -0.563282 0.538497 0.228766
v -0.736511 -0.231655 0.015920
v -0.782165 -0.218060 0.219765
v -0.783304 0.030418 0.204186
v -0.735591 0.121417 -0.073063
v -0.681376 -0.354758 0.483175
v -0.704528 -0.021534 0.507601
v -0.125033 0.815556 0.435518
v -0.368383 0.666261 0.236366
v 0.381009 0.726157 0.403945
v 0.264279 0.710916 0.213425
v -0.094927 0.729881 0.160007
v 0.072790 0.870404 0.398687
v 0.243565 0.569294 0.054486
v 0.222775 0.487786 -0.067865
v 0.031954 0.372214 -0.034542
v -0.085754 0.586166 0.028953
v 0.426088 0.512135 -0.055439
v 0.495014 0.303019 -0.090494
v 0.496622 0.070306 -0.074867
v 0.479264 -0.223396 -0.060075
v 0.349787 -0.506767 -0.036120
v 0.619350 0.486235 0.514839
v 0.366006 0.617426 0.533099
v 0.050003 0.752989 0.535298
v -0.083130 0.855646 0.544967
v 0.513660 0.611656 0.083189
v 0.570234 0.580364 0.255694
v 0.658339 0.561423 0.383640
vt 0.137636 0.563411
vt 0.082613 0.506661
vt 0.152906 0.498683
vt 0.155028 0.344089
vt 0.155630 0.402329
vt 0.099783 0.387655
vt 0.896175 0.282885
vt 0.794976 0.248970
vt 0.870663 0.174892
vt 0.949240 0.587705
vt 0.905653 0.682602
vt 0.916733 0.604517
vt 0.369246 0.000842
vt 0.460672 0.063535
vt 0.336809 0.082005
vt 0.485748 0.254952
vt 0.481603 0.323059
vt 0.447322 0.276247
vt 0.215363 0.578539
vt 0.270084 0.523882
vt 0.276846 0.583529
vt 0.226456 0.694739
vt 0.266533 0.646047
vt 0.288525 0.695621
vt 0.060049 0.668982
vt 0.140662 0.629249
vt 0.149628 0.688747
vt 0.046020 0.277128
vt 0.042023 0.402498
vt 0.011393 0.383384
vt 0.226136 0.127633
vt 0.116225 0.149680
vt 0.133867 0.094672
vt 0.335575 0.267841
vt 0.206193 0.274302
vt 0.273683 0.187557
vt 0.520455 0.684734
vt 0.404599 0.713241
vt 0.422948 0.654063
vt 0.529375 0.479105
vt 0.439840 0.553878
vt 0.422729 0.459207
vt 0.672331 0.787452
vt 0.731678 0.707183
vt 0.744126 0.814485
vt 0.006598 0.482318
vt 0.090851 0.431859
vt 0.016271 0.536299
vt 0.857058 0.070133
vt 0.818683 0.137473
vt 0.786060 0.070157
vt 0.720806 0.251159
vt 0.758736 0.168010
vt 0.829103 0.182611
vt 0.408067 0.318081
vt 0.431026 0.176751
vt 0.834672 0.401576
vt 0.758928 0.488146
vt 0.747834 0.361119
vt 0.844101 0.700647
vt 0.766456 0.640000
vt 0.853441 0.628842
vt 0.491069 0.166304
vt 0.554998 0.057463
vt 0.642437 0.169965
vt 0.608937 0.072162
vt 0.661203 0.071636
vt 0.619708 0.321108
vt 0.556413 0.271543
vt 0.628288 0.255903
vt 0.223692 0.502410
vt 0.220811 0.635843
vt 0.058285 0.569867
vt 0.115533 0.299946
vt 0.165692 0.199396
vt 0.258354 0.321530
vt 0.934356 0.187628
vt 0.907061 0.133559
vt 0.539575 0.580737
vt 0.617335 0.678426
vt 0.622627 0.581780
vt 0.672331 0.661064
vt 0.939564 0.506329
vt 0.869574 0.490922
vt 0.744126 0.821215
vt 0.791426 0.711743
vt 0.791582 0.866218
vt 1.000000 0.606532
vt 0.944083 0.694636
vt 0.348488 0.225548
vt 0.672331 0.596657
vt 0.677773 0.459778
vt 0.674914 0.687648
vt 0.565426 0.199969
vt 0.387737 0.801509
vt 0.336920 0.785916
vt 0.384519 0.726331
vt 0.506205 0.350977
vt 0.512673 0.310590
vt 0.560004 0.310321
vt 0.609960 0.361119
vt 0.324683 0.722893
vt 0.320949 0.673747
vt 0.218381 0.752553
vt 0.278588 0.749240
vt 0.143231 0.752483
vt 0.069266 0.722735
vt 0.808347 0.361119
vt 0.854473 0.349296
vt 0.056221 0.145884
vt 0.000000 0.241327
vt 0.085645 0.065345
vt 0.116277 0.014773
vt 0.187902 0.035191
vt 0.273048 0.064123
vt 0.336809 0.140426
vt 0.316518 0.068429
vt 0.336809 0.674909
vt 0.340137 0.610197
vt 0.339988 0.536299
vt 0.336833 0.476818
vt 0.353162 0.419686
vt 0.517650 0.412671
vt 0.429528 0.400325
vt 0.604166 0.482239
vt 0.586459 0.423461
vt 0.646477 0.441109
vt 0.000000 0.608449
vt 0.053708 0.620010
vt 0.736508 0.092307
vt 0.012308 0.682984
vt 0.913859 0.076969
vt 0.855242 0.125920
vt 0.448079 0.354288
vt 0.291247 0.454530
vt 0.685316 0.388716
vt 0.130148 0.436240
vt 0.867108 0.417288
vt 0.821728 0.494375
vt 0.489191 0.000000
vt 0.563922 0.000091
vt 0.582099 0.007382
vt 0.207942 0.000000
vt 0.639569 0.392860
vt 0.579472 0.365264
vt 0.693822 0.237100
vt 0.693981 0.150197
vt 0.668575 0.311882
vt 0.206316 0.378186
vt 0.477461 0.726331
vt 0.683844 0.711964
vt 0.054401 0.402498
vt 0.693981 0.268226
vt 0.766741 0.707183
vt 0.662917 0.562066
vt 0.752056 0.707183
vt 0.999879 0.706758
vt 0.336809 0.833560
vt 0.559475 0.342029
vt 0.670954 0.491413
vt 0.694133 0.143704
vt 0.019832 0.742597
vt 0.232244 0.440506
vt 0.293309 0.025246
vt 0.477201 0.361119
vn -0.0796 -0.1933 -0.9779
vn -0.3110 -0.5306 -0.7885
vn -0.3029 -0.1545 -0.9404
vn -0.0711 -0.1584 0.9848
vn -0.3408 -0.5159 0.7859
vn -0.3430 -0.6117 0.7129
vn 0.7746 -0.2972 0.5582
vn 0.4023 -0.8029 0.4399
vn 0.3901 -0.8846 0.2558
vn -0.3367 -0.9355 0.1069
vn -0.6013 -0.7257 0.3344
vn -0.4539 0.2292 0.8611
vn -0.5717 0.8077 0.1442
vn -0.8850 0.2854 0.3678
vn -0.1928 0.6932 -0.6945
vn 0.0540 0.5698 -0.8200
vn -0.2159 0.7750 -0.5940
vn -0.0570 0.0203 -0.9982
vn -0.0850 0.2556 -0.9630
vn 0.0461 0.4416 -0.8960
vn 0.0987 0.0367 -0.9944
vn -0.1111 0.2650 -0.9578
vn -0.0455 0.1712 -0.9842
vn 0.1037 -0.5063 -0.8561
vn -0.0700 -0.1560 -0.9853
vn 0.1192 -0.1396 -0.9830
vn 0.0425 -0.1706 0.9844
vn -0.5304 -0.7572 0.3813
vn 0.1152 -0.9330 0.3408
vn 0.0154 0.1952 0.9807
vn 0.1034 0.0072 0.9946
vn 0.1487 0.1511 0.9773
vn -0.0517 0.0276 0.9983
vn -0.0381 0.1258 0.9913
vn 0.9480 -0.2604 0.1832
vn 0.4953 -0.6603 -0.5645
vn 0.9208 -0.1522 -0.3592
vn 0.9820 -0.0315 -0.1864
vn 0.9813 -0.0309 -0.1899
vn 0.9181 0.1816 -0.3523
vn 0.6266 -0.0523 0.7776
vn 0.8902 -0.1271 0.4374
vn 0.9953 -0.0874 0.0411
vn -0.4154 -0.8580 -0.3022
vn -0.7569 -0.3819 -0.5304
vn -0.2406 -0.9239 -0.2975
vn 0.1146 -0.9080 -0.4030
vn 0.0598 -0.9883 -0.1403
vn -0.1155 -0.9883 -0.0996
vn -0.0263 -0.8617 -0.5068
vn 0.0609 -0.9814 -0.1822
vn -0.3634 0.5615 -0.7434
vn -0.5325 0.8012 -0.2732
vn -0.7982 -0.0912 -0.5954
vn -0.9937 -0.1122 -0.0037
vn -0.6544 0.0059 -0.7561
vn -0.4113 -0.1772 0.8941
vn -0.8157 -0.0997 0.5698
vn -0.7978 -0.2365 0.5545
vn -0.4000 0.8137 -0.4217
vn -0.3760 0.9061 -0.1942
vn 0.2356 0.8450 -0.4800
vn 0.1737 0.9848 0.0099
vn 0.4465 0.8737 0.1931
vn -0.1024 0.5472 -0.8307
vn -0.1114 0.5123 -0.8515
vn 0.0222 0.7867 -0.6169
vn -0.1681 0.0124 -0.9857
vn -0.0293 0.0792 -0.9964
vn -0.1957 -0.5088 -0.8383
vn -0.0556 -0.0828 0.9950
vn -0.0124 0.0552 0.9984
vn -0.3327 -0.0140 0.9429
vn 0.7375 -0.6741 -0.0424
vn 0.9736 -0.0545 0.2216
vn 0.3573 -0.2334 0.9043
vn -0.9141 -0.4052 -0.0170
vn -0.8943 0.3932 -0.2134
vn -0.1291 0.8077 -0.5753
vn 0.0138 0.6475 -0.7619
vn -0.1571 0.3235 -0.9331
vn 0.2341 0.5620 -0.7933
vn 0.6102 -0.0491 -0.7907
vn 0.5111 0.0625 -0.8572
vn 0.5176 -0.1045 -0.8492
vn 0.3116 -0.4087 -0.8578
vn 0.5473 -0.1313 0.8266
vn 0.6355 0.3692 0.6781
vn 0.2690 0.5279 0.8056
vn 0.2565 0.4312 0.8650
vn -0.3230 0.6040 0.7286
vn -0.0908 0.8090 0.5808
vn 0.7469 0.6276 -0.2195
vn 0.4762 0.7765 -0.4125
vn 0.8595 0.5111 -0.0056
vn -0.1175 -0.5004 -0.8578
vn -0.0014 -0.9970 -0.0780
vn -0.9983 -0.0163 0.0552
usemtl Material.002
s 1
f 1/1/1 3/2/2 4/3/3
f 5/4/4 7/5/5 8/6/6
f 9/7/7 11/8/8 12/9/9
f 13/10/10 7/11/5 14/12/11
f 16/13/12 18/14/13 15/15/14
f 19/16/15 21/17/16 22/18/17
f 24/19/18 26/20/19 23/21/20
f 28/22/21 30/23/22 27/24/23
f 32/25/24 34/26/25 31/27/26
f 35/28/27 37/29/28 38/30/29
f 40/31/30 42/32/31 39/33/32
f 16/34/12 45/35/33 43/36/34
f 47/37/35 49/38/36 46/39/37
f 51/40/38 53/41/39 50/42/40
f 55/43/41 57/44/42 54/45/43
f 59/46/44 61/47/45 58/48/46
f 62/49/47 64/50/48 65/51/49
f 38/52/29 67/53/50 66/54/51
f 68/55/52 70/56/53 22/18/17
f 71/57/54 73/58/55 74/59/56
f 6/60/57 76/61/58 75/62/59
f 78/63/60 18/14/13 77/64/61
f 80/65/62 82/66/63 79/67/64
f 84/68/65 86/69/66 83/70/67
f 24/19/18 4/3/3 25/71/68
f 34/26/25 24/19/18 29/72/69
f 34/26/25 2/73/70 1/1/1
f 36/74/71 8/6/6 37/29/28
f 45/35/33 36/74/71 41/75/72
f 44/76/73 5/4/4 45/35/33
f 47/77/35 12/9/9 48/78/74
f 52/79/75 9/80/7 47/37/35
f 57/81/42 10/82/76 9/80/7
f 59/83/44 14/12/11 60/84/77
f 67/85/50 59/86/44 64/87/48
f 67/88/50 8/89/6 13/10/10
f 15/15/14 70/56/53 69/90/78
f 73/58/55 15/91/14 69/92/78
f 76/61/58 16/93/12 15/91/14
f 19/16/15 70/56/53 78/63/60
f 81/94/79 19/16/15 78/63/60
f 86/95/66 20/96/80 19/97/15
f 23/98/20 21/17/16 20/99/80
f 85/100/81 23/98/20 20/99/80
f 29/72/69 23/21/20 30/23/22
f 27/101/23 85/100/81 84/68/65
f 87/102/82 27/24/23 84/103/65
f 89/104/83 27/24/23 88/105/84
f 31/27/26 29/72/69 28/22/21
f 90/106/85 28/22/21 89/104/83
f 91/107/86 31/27/26 90/106/85
f 35/108/27 11/8/8 10/109/76
f 56/110/87 35/28/27 10/111/76
f 41/75/72 35/28/27 42/32/31
f 55/112/41 42/32/31 56/110/87
f 92/113/88 39/33/32 55/112/41
f 93/114/89 40/31/30 39/33/32
f 43/36/34 41/75/72 40/31/30
f 94/115/90 43/36/34 40/31/30
f 17/116/91 43/36/34 95/117/92
f 46/39/37 91/118/86 90/119/85
f 53/41/39 90/119/85 89/120/83
f 52/79/75 46/39/37 53/41/39
f 88/121/84 53/41/39 89/120/83
f 87/122/82 50/42/40 88/121/84
f 97/123/93 50/42/40 96/124/94
f 54/125/43 52/79/75 51/40/38
f 98/126/95 51/40/38 97/123/93
f 92/127/88 54/125/43 98/126/95
f 58/48/46 3/2/2 2/73/70
f 65/128/49 2/73/70 33/129/96
f 64/50/48 58/130/46 65/51/49
f 32/25/24 65/128/49 33/129/96
f 91/107/86 62/131/47 32/25/24
f 49/132/36 63/133/97 62/49/47
f 66/54/51 64/50/48 63/133/97
f 12/9/9 63/133/97 48/78/74
f 11/8/8 66/54/51 12/9/9
f 26/134/19 22/18/17 21/17/16
f 25/71/68 68/135/52 26/20/19
f 74/59/56 69/92/78 68/136/52
f 71/137/54 25/71/68 4/3/3
f 61/47/45 4/3/3 3/2/2
f 61/138/45 72/139/98 71/57/54
f 72/139/98 76/61/58 73/58/55
f 60/84/77 75/62/59 72/139/98
f 7/11/5 75/62/59 14/12/11
f 77/64/61 17/140/91 95/141/92
f 82/66/63 95/141/92 94/142/90
f 81/94/79 77/64/61 82/66/63
f 79/143/64 94/115/90 93/114/89
f 98/126/95 93/144/89 92/127/88
f 97/123/93 79/145/64 98/126/95
f 83/70/67 81/94/79 80/65/62
f 96/146/94 80/65/62 97/147/93
f 87/148/82 83/70/67 96/146/94
f 1/1/1 2/73/70 3/2/2
f 5/4/4 6/149/57 7/5/5
f 9/7/7 10/109/76 11/8/8
f 13/10/10 8/89/6 7/11/5
f 16/13/12 17/140/91 18/14/13
f 19/16/15 20/99/80 21/17/16
f 24/19/18 25/71/68 26/20/19
f 28/22/21 29/72/69 30/23/22
f 32/25/24 33/129/96 34/26/25
f 35/28/27 36/74/71 37/29/28
f 40/31/30 41/75/72 42/32/31
f 16/34/12 44/76/73 45/35/33
f 47/37/35 48/150/74 49/38/36
f 51/40/38 52/79/75 53/41/39
f 55/43/41 56/151/87 57/44/42
f 59/46/44 60/152/77 61/47/45
f 62/49/47 63/133/97 64/50/48
f 38/52/29 37/153/28 67/53/50
f 68/55/52 69/90/78 70/56/53
f 71/57/54 72/139/98 73/58/55
f 6/60/57 44/154/73 76/61/58
f 78/63/60 70/56/53 18/14/13
f 80/65/62 81/94/79 82/66/63
f 84/68/65 85/100/81 86/69/66
f 24/19/18 1/1/1 4/3/3
f 34/26/25 1/1/1 24/19/18
f 34/26/25 33/129/96 2/73/70
f 36/74/71 5/4/4 8/6/6
f 45/35/33 5/4/4 36/74/71
f 44/76/73 6/149/57 5/4/4
f 47/77/35 9/7/7 12/9/9
f 52/79/75 57/81/42 9/80/7
f 57/81/42 56/155/87 10/82/76
f 59/83/44 13/10/10 14/12/11
f 67/85/50 13/156/10 59/86/44
f 67/88/50 37/157/28 8/89/6
f 15/15/14 18/14/13 70/56/53
f 73/58/55 76/61/58 15/91/14
f 76/61/58 44/154/73 16/93/12
f 19/16/15 22/18/17 70/56/53
f 81/94/79 86/69/66 19/16/15
f 86/95/66 85/158/81 20/96/80
f 23/98/20 26/134/19 21/17/16
f 85/100/81 30/159/22 23/98/20
f 29/72/69 24/19/18 23/21/20
f 27/101/23 30/159/22 85/100/81
f 87/102/82 88/105/84 27/24/23
f 89/104/83 28/22/21 27/24/23
f 31/27/26 34/26/25 29/72/69
f 90/106/85 31/27/26 28/22/21
f 91/107/86 32/25/24 31/27/26
f 35/108/27 38/52/29 11/8/8
f 56/110/87 42/32/31 35/28/27
f 41/75/72 36/74/71 35/28/27
f 55/112/41 39/33/32 42/32/31
f 92/113/88 93/114/89 39/33/32
f 93/114/89 94/115/90 40/31/30
f 43/36/34 45/35/33 41/75/72
f 94/115/90 95/117/92 43/36/34
f 17/116/91 16/34/12 43/36/34
f 46/39/37 49/38/36 91/118/86
f 53/41/39 46/39/37 90/119/85
f 52/79/75 47/37/35 46/39/37
f 88/121/84 50/42/40 53/41/39
f 87/122/82 96/124/94 50/42/40
f 97/123/93 51/40/38 50/42/40
f 54/125/43 57/81/42 52/79/75
f 98/126/95 54/125/43 51/40/38
f 92/127/88 55/160/41 54/125/43
f 58/48/46 61/47/45 3/2/2
f 65/128/49 58/48/46 2/73/70
f 64/50/48 59/161/44 58/130/46
f 32/25/24 62/131/47 65/128/49
f 91/107/86 49/162/36 62/131/47
f 49/132/36 48/78/74 63/133/97
f 66/54/51 67/53/50 64/50/48
f 12/9/9 66/54/51 63/133/97
f 11/8/8 38/52/29 66/54/51
f 26/134/19 68/55/52 22/18/17
f 25/71/68 74/163/56 68/135/52
f 74/59/56 73/58/55 69/92/78
f 71/137/54 74/163/56 25/71/68
f 61/47/45 71/137/54 4/3/3
f 61/138/45 60/84/77 72/139/98
f 72/139/98 75/62/59 76/61/58
f 60/84/77 14/12/11 75/62/59
f 7/11/5 6/60/57 75/62/59
f 77/64/61 18/14/13 17/140/91
f 82/66/63 77/64/61 95/141/92
f 81/94/79 78/63/60 77/64/61
f 79/143/64 82/164/63 94/115/90
f 98/126/95 79/145/64 93/144/89
f 97/123/93 80/165/62 79/145/64
f 83/70/67 86/69/66 81/94/79
f 96/146/94 83/70/67 80/65/62
f 87/148/82 84/68/65 83/70/67
