# Blender v3.0.0 OBJ File: ''
# www.blender.org
mtllib rock.mtl
o Icosphere
v 0.002077 -0.052159 -0.278837
v 0.486691 -0.355651 -0.168281
v -0.201312 -0.581949 -0.243160
v 0.955462 -0.624371 0.006035
v 1.042071 -0.065289 -0.005744
v -0.654834 -0.054617 -0.218043
v -0.202319 0.482061 -0.164538
v 0.482085 0.246678 -0.201838
v 1.298668 -0.402109 0.316922
v -0.378429 -0.999989 -0.024142
v 0.356356 -0.949644 -0.078760
v -0.000055 -1.165189 0.317028
v -1.154746 0.030944 0.066766
v -0.940995 -0.612304 -0.082588
v -1.267079 -0.356046 0.362726
v -0.364410 0.838106 0.119908
v -0.910325 0.534279 0.010210
v -0.801380 0.832342 0.327279
v 0.830052 0.432218 0.060161
v 0.357897 0.832366 -0.051942
v 0.721312 0.721967 0.326426
v 0.791559 -0.891759 0.349532
v -0.804793 -0.954082 0.317066
v -1.215080 0.394598 0.430359
v 0.019228 1.049696 0.308001
v 1.235443 0.148023 0.342032
v 0.323374 -0.983084 0.593527
v 0.981926 -0.522725 0.592383
v 0.206291 -0.623784 0.942990
v -0.996866 -0.642396 0.664673
v -0.497002 -0.970382 0.861673
v -0.584868 -0.403026 0.968715
v -0.986581 0.523257 0.663709
v -1.158864 -0.054236 0.725774
v -0.582350 0.278736 0.966079
v 0.297533 0.875533 0.560216
v -0.362458 0.836285 0.708250
v 0.166214 0.392534 0.874889
v 1.173404 -0.075180 0.645808
v 0.833392 0.380860 0.641136
v 0.584648 -0.065110 0.832449
v -0.003962 -0.062289 1.071970
vt 0.207990 0.185173
vt 0.106738 0.233059
vt 0.121794 0.102514
vt 0.010298 0.286371
vt 0.110157 0.356274
vt 0.256608 0.091294
vt 0.320139 0.217536
vt 0.223067 0.292450
vt 0.010496 0.380752
vt 0.811689 0.302155
vt 0.715321 0.373383
vt 0.696915 0.241068
vt 0.577157 0.665703
vt 0.647277 0.762305
vt 0.494911 0.750374
vt 0.557917 0.445423
vt 0.586140 0.550221
vt 0.483178 0.489087
vt 0.204107 0.449560
vt 0.321859 0.489313
vt 0.203686 0.545968
vt 0.492176 0.000000
vt 0.604964 0.032970
vt 0.492039 0.110085
vt 0.827790 0.173152
vt 0.453612 0.608663
vt 0.504148 0.373383
vt 0.077079 0.466385
vt 0.477209 0.221987
vt 0.603514 0.137646
vt 0.578100 0.308256
vt 0.998730 0.506122
vt 1.000000 0.632429
vt 0.891854 0.566860
vt 0.786987 0.373383
vt 0.897281 0.423223
vt 0.768493 0.488529
vt 0.222888 0.652240
vt 0.256335 0.744227
vt 0.117618 0.710402
vt 0.000000 0.533416
vt 0.092443 0.592665
vt 0.025728 0.632334
vt 0.000000 0.158152
vt 0.045983 0.047345
vt 0.218249 0.380533
vt 0.679921 0.632117
vt 0.166901 0.000000
vt 0.659659 0.492584
vt 0.377741 0.129197
vt 0.336941 0.344390
vt 0.629563 0.377976
vt 0.005354 0.417220
vt 0.131751 0.380752
vt 0.377741 0.194066
vt 0.377928 0.052649
vt 0.926366 0.109864
vt 0.825430 0.054173
vt 0.926682 0.265044
vt 0.384360 0.566640
vt 0.318019 0.624426
vt 0.696915 0.116106
vt 0.703415 0.046512
vt 0.452294 0.373383
vt 0.377741 0.689139
vt 0.999839 0.404285
vt 0.377862 0.452213
vt 0.678256 0.223305
vt 0.666930 0.343687
vt 0.877034 0.696165
vt 0.776446 0.617125
vt 0.703404 0.566584
vt 0.679921 0.426347
vt 0.040980 0.744116
vn 0.0360 0.0392 -0.9986
vn 0.2305 -0.1153 -0.9662
vn -0.0407 -0.2397 -0.9700
vn 0.5625 -0.4561 -0.6897
vn 0.6051 0.1047 -0.7892
vn -0.2759 0.0731 -0.9584
vn -0.1102 0.3655 -0.9243
vn 0.2612 0.1691 -0.9503
vn 0.9456 -0.3225 -0.0436
vn -0.2027 -0.7605 -0.6168
vn 0.2464 -0.6689 -0.7013
vn 0.0581 -0.9982 -0.0129
vn -0.7838 0.0978 -0.6132
vn -0.5841 -0.3957 -0.7087
vn -0.9620 -0.2716 -0.0276
vn -0.2083 0.7296 -0.6514
vn -0.5192 0.4832 -0.7050
vn -0.4916 0.8670 -0.0811
vn 0.6116 0.4759 -0.6321
vn 0.2658 0.6870 -0.6763
vn 0.6374 0.7689 0.0500
vn 0.5372 -0.8332 0.1312
vn -0.5575 -0.8266 -0.0762
vn -0.9123 0.4050 0.0601
vn 0.0326 0.9979 -0.0566
vn 0.9040 0.4238 -0.0563
vn 0.3087 -0.7894 0.5306
vn 0.5313 -0.4528 0.7161
vn 0.2542 -0.3583 0.8983
vn -0.7009 -0.4786 0.5288
vn -0.2377 -0.6902 0.6835
vn -0.2800 -0.1471 0.9486
vn -0.5775 0.5324 0.6189
vn -0.7487 0.0024 0.6629
vn -0.2327 0.2644 0.9359
vn 0.3195 0.7608 0.5649
vn -0.1339 0.7318 0.6682
vn 0.2166 0.3802 0.8992
vn 0.6867 0.0662 0.7239
vn 0.5046 0.4751 0.7208
vn 0.3576 0.0522 0.9324
vn 0.1193 0.0683 0.9905
usemtl Material.001
s 1
f 1/1/1 2/2/2 3/3/3
f 4/4/4 2/2/2 5/5/5
f 1/1/1 3/3/3 6/6/6
f 1/1/1 6/6/6 7/7/7
f 1/1/1 7/7/7 8/8/8
f 4/4/4 5/5/5 9/9/9
f 10/10/10 11/11/11 12/12/12
f 13/13/13 14/14/14 15/15/15
f 16/16/16 17/17/17 18/18/18
f 19/19/19 20/20/20 21/21/21
f 4/22/4 9/23/9 22/24/22
f 10/10/10 12/12/12 23/25/23
f 13/13/13 15/15/15 24/26/24
f 16/16/16 18/18/18 25/27/25
f 19/19/19 21/21/21 26/28/26
f 27/29/27 28/30/28 29/31/29
f 30/32/30 31/33/31 32/34/32
f 33/35/33 34/36/34 35/37/35
f 36/38/36 37/39/37 38/40/38
f 39/41/39 40/42/40 41/43/41
f 3/3/3 11/44/11 10/45/10
f 3/3/3 2/2/2 11/44/11
f 2/2/2 4/4/4 11/44/11
f 5/5/5 8/8/8 19/46/19
f 5/5/5 2/2/2 8/8/8
f 2/2/2 1/1/1 8/8/8
f 6/47/6 14/14/14 13/13/13
f 6/6/6 3/3/3 14/48/14
f 3/3/3 10/45/10 14/48/14
f 7/49/7 17/17/17 16/16/16
f 7/7/7 6/6/6 17/50/17
f 6/47/6 13/13/13 17/17/17
f 8/8/8 20/51/20 19/46/19
f 8/8/8 7/7/7 20/51/20
f 7/49/7 16/16/16 20/52/20
f 9/53/9 26/28/26 39/41/39
f 9/53/9 5/54/5 26/28/26
f 5/54/5 19/19/19 26/28/26
f 12/55/12 22/24/22 27/29/27
f 12/55/12 11/56/11 22/24/22
f 11/56/11 4/22/4 22/24/22
f 15/57/15 23/25/23 30/58/30
f 15/57/15 14/59/14 23/25/23
f 14/59/14 10/10/10 23/25/23
f 18/18/18 24/26/24 33/60/33
f 18/18/18 17/17/17 24/26/24
f 17/17/17 13/13/13 24/26/24
f 21/21/21 25/61/25 36/38/36
f 21/21/21 20/20/20 25/61/25
f 20/52/20 16/16/16 25/27/25
f 22/24/22 28/30/28 27/29/27
f 22/24/22 9/23/9 28/30/28
f 9/23/9 39/62/39 28/30/28
f 23/25/23 31/63/31 30/58/30
f 23/25/23 12/12/12 31/63/31
f 12/55/12 27/29/27 31/64/31
f 24/26/24 34/65/34 33/60/33
f 24/26/24 15/15/15 34/65/34
f 15/66/15 30/32/30 34/36/34
f 25/61/25 37/39/37 36/38/36
f 25/27/25 18/18/18 37/67/37
f 18/18/18 33/60/33 37/67/37
f 26/28/26 40/42/40 39/41/39
f 26/28/26 21/21/21 40/42/40
f 21/21/21 36/38/36 40/42/40
f 29/31/29 41/68/41 42/69/42
f 29/31/29 28/30/28 41/68/41
f 28/30/28 39/62/39 41/68/41
f 32/34/32 29/70/29 42/71/42
f 32/34/32 31/33/31 29/70/29
f 31/64/31 27/29/27 29/31/29
f 35/37/35 32/34/32 42/71/42
f 35/37/35 34/36/34 32/34/32
f 34/36/34 30/32/30 32/34/32
f 38/72/38 35/37/35 42/71/42
f 38/72/38 37/73/37 35/37/35
f 37/73/37 33/35/33 35/37/35
f 41/43/41 38/40/38 42/74/42
f 41/43/41 40/42/40 38/40/38
f 40/42/40 36/38/36 38/40/38
